<?xml version="1.0" encoding="utf-8"?>
<!-- Generator: Adobe Illustrator 18.0.0, SVG Export Plug-In . SVG Version: 6.00 Build 0)  -->
<!DOCTYPE svg PUBLIC "-//W3C//DTD SVG 1.1//EN" "http://www.w3.org/Graphics/SVG/1.1/DTD/svg11.dtd">
<svg version="1.1" id="Layer_1" xmlns="http://www.w3.org/2000/svg" xmlns:xlink="http://www.w3.org/1999/xlink" x="0px" y="0px"
	 viewBox="0 0 60 60" style="enable-background:new 0 0 60 60;" xml:space="preserve">
<g>
	<g>
		<path d="M21.7,40.8c0.3,0.5,0.7,1.2,0.9,1.7c0.2,0.5-0.8,1.5-0.7,2.1c0.1,0.5,0.6,0.9,0.7,1.4c0.3,0,0.6,0.1,0.9-0.1
			c0.5-0.2,0.7-1.5,1.3-1.6c0.6-0.1,1.2,0.5,1.8,0.5s1.1-0.1,1.7,0c0.5,0.1,1.3-0.7,1.8-0.8c-0.1-0.1-0.3-0.3-0.5-0.3
			C29,43.5,28,44.3,27.5,44c-0.5-0.3-0.9-0.9-1.3-1.4c-0.4-0.4-1.2-0.7-1.6-1.1c-0.3-0.4,0.9-1.6,1-2.3c-0.2,0-0.3,0.1-0.4,0.2
			c-0.5,0.3-1.3-0.2-1.9,0.1c-0.5,0.2-0.9,0.8-1.4,0.9c-0.6,0.1-1.1-0.6-1.7-0.6c-0.3,0-0.5,0-0.7,0c0,0.1,0.1,0.2,0.2,0.2
			C20.2,40.5,21.3,40.4,21.7,40.8"/>
		<path d="M35.4,53.1c0-0.2-0.2-0.5-0.3-0.7c-0.2,0.3-0.4,0.5-0.4,0.8c0,0.6-0.5,0.9-0.6,1.5c0,0.3,0.2,0.6,0.4,0.9
			c0-0.2-0.1-0.3-0.1-0.4C34.2,54.7,35.6,53.7,35.4,53.1"/>
		<path d="M46.2,2.2c0.5,0.2,1.4-0.4,1.9-0.1c0.5,0.3,0.4,1.2,0.8,1.7c0.4,0.4,0.4,1,0.8,1.4C50,5.8,50.4,6,50.6,6.6
			c0.2,0.5,1.9,0.6,2,1.2c0.1,0.6-0.2,1.3-0.2,1.9c0,0.6-1,1.1-1.1,1.6c-0.1,0.6,0.5,1.4,0.3,1.9c-0.1,0.2-0.2,0.2-0.5,0.3
			c0.3,0.5-0.6,1.9-0.3,2.4c0.3,0.5,2.1,0.2,2.3,0.8c0.2,0.5,0.7,1.2,0.8,1.8c0.1,0.4-0.6,0.8-1.2,1.2c0.3,0.2,0.6,0.4,0.9,0.4
			c0.6,0,1,0.8,1.6,0.9s1.4-0.9,2-0.7c0.5,0.2,1.1,0.6,1.6,0.9c0.5,0.3,0.5,1.2,0.9,1.6c0.1,0.1,0.2,0.1,0.4,0.2V0H45.1
			C45.6,0.3,45.7,2,46.2,2.2"/>
		<path d="M38,43.7c0.2-0.1,0.4-0.3,0.6-0.4c-0.2-0.2-0.5-0.3-0.7-0.5c-0.3-0.1-0.5-0.1-0.6,0c-0.5,0.3-0.7,1-1.2,1.2
			c-0.5,0.2-1.2-0.3-1.7-0.2s-1,1.9-1.5,1.9c-0.6,0-1.2-0.7-1.8-0.8c-0.1,0-0.2-0.1-0.2-0.1c0.1,0.5,0.2,1.2,0.5,1.4
			c0.5,0.3,1.5,0.1,1.9,0.5c0.4,0.4,0.9,0.9,1.2,1.4c0.2,0.2,0.3,0.5,0.5,0.8c0.2-0.2,0.4-0.3,0.4-0.5c0.2-0.5,1.1-0.6,1.4-1.1
			c0.3-0.5-0.6-2-0.2-2.4C36.9,44.4,37.5,44,38,43.7"/>
		<path d="M19.5,58c-0.3-0.5-1.5-0.5-1.7-1.1c-0.2-0.5,1.3-1.6,1.2-2.1c-0.1-0.6-0.6-0.9-0.6-1.5c0-0.1-0.1-0.3-0.1-0.4
			c-0.1,0-0.1,0.1-0.2,0.1c-0.5,0.3-0.8,0.7-1.3,0.9c-0.5,0.2-0.9,0.8-1.5,0.9c-0.6,0.1-1.1,1.3-1.7,1.3c-0.6,0-1.1-1.5-1.6-1.6
			c-0.6-0.1-0.8-0.9-1.3-1.1c-0.5-0.2-1.8,1-2.3,0.7c-0.5-0.3-0.7-1-1.2-1.5c-0.4-0.4,0.1-1.5-0.3-1.9c-0.3-0.5-0.7-0.8-0.9-1.3
			c-0.2-0.5-1.1-0.8-1.2-1.4c-0.1-0.6,0.8-1.2,0.8-1.7c0-0.6-1.2-1.2-1.1-1.8c0.1-0.6-0.1-1.4,0.1-1.9c0.2-0.5,1.2-0.8,1.5-1.2
			c0.3-0.5,0.1-1.6,0.5-2c0.4-0.4,1.7,0.2,2.2-0.2c0.5-0.3,0.6-1.5,1.1-1.7c0.5-0.2,1.2-0.3,1.8-0.4c0.6-0.1,1.3,1.3,1.8,1.3
			c0.4,0,0.8-0.2,1.1-0.4c-0.1-0.1-0.1-0.2-0.2-0.2c-0.4-0.4-1.6-0.2-1.9-0.7c-0.2-0.3,0-0.7,0.1-1.1c-0.5,0-1.1-0.2-1.3,0
			c-0.5,0.3-1.1,0.2-1.7,0.4c-0.5,0.2-1,0.4-1.5,0.5c-0.6,0.1-1,1-1.6,1c-0.6,0-1-0.9-1.6-1c-0.6-0.1-1.2,0.3-1.8,0.1
			c-0.5-0.2-1.3-0.1-1.8-0.5c-0.5-0.3-0.7-1-1.1-1.4C0.2,35,0.1,34.9,0,34.9V60h19.8C19.4,59.6,19.8,58.4,19.5,58"/>
		<path d="M58.9,36.7c-0.5,0.3-1.1,0.6-1.7,0.8c-0.5,0.2-1.4-0.6-1.9-0.5c-0.3,0.1-0.6,0.5-0.8,0.9c0.2,0.2,0.3,0.5,0.3,0.8
			c0,0.6,0.5,1.3,0.4,1.8s-0.3,1.2-0.6,1.8c-0.2,0.5-0.7,1-1,1.5c-0.3,0.5-0.6,1.1-1,1.5c-0.4,0.4-0.7,1.2-1.2,1.5
			c-0.1,0-0.2,0.1-0.3,0.1c0.3,0.3,0.6,0.7,0.7,1.1c0.2,0.5,0.5,1.2,0.6,1.7c0.1,0.6-0.5,1.2-0.5,1.8c0,0.6,1.1,1.4,1,1.9
			c-0.1,0.6-2.3,0.5-2.5,1c-0.2,0.5,0,1.1-0.3,1.6c-0.3,0.5,0.3,1.7-0.1,2.1c-0.4,0.4-0.9,1-1.4,1.3c-0.5,0.3-1.6-0.4-2.1-0.2
			c-0.5,0.2-1,0.4-1.6,0.6c-0.1,0-0.3,0.1-0.4,0.1H60V35.9C59.6,36.2,59.2,36.5,58.9,36.7"/>
		<path d="M32.8,0c0.1,0.1,0.3,0.3,0.4,0.4c0.3,0.5-0.6,1.7-0.4,2.2c0.2,0.5,0.6,1,0.7,1.5c0.1,0.6,0.4,1.1,0.4,1.7
			c0,0.6-0.3,1.1-0.4,1.7c-0.1,0.6-1,0.8-1.2,1.3c-0.2,0.5,1.3,2,1,2.5c-0.1,0.1-0.3,0.2-0.5,0.2c0.2,0.1,0.5,0.2,0.7,0.3
			c0.5,0.2,0.5,1.6,1,1.9c0.5,0.3,0.5,1,0.9,1.4c0.3,0.3,1,0.2,1.5,0.3c0,0,0.1-0.1,0.1-0.1c-0.3-0.3-0.6-0.6-0.8-1
			c-0.3-0.5-0.7-0.9-0.9-1.4c-0.2-0.5-0.3-1.1-0.4-1.6c-0.1-0.6-0.2-1.1-0.2-1.6c0-0.6,0.2-1.1,0.3-1.6s0.4-1,0.6-1.5
			c0.2-0.5,0.8-0.7,1.1-1.2C36.9,4.9,36,3.4,36.4,3c0.4-0.4,1.4-0.1,1.9-0.5c0.5-0.3,0.6-1.3,1.2-1.6c0.5-0.2,1.1-0.7,1.7-0.8
			c0.6-0.1,1.3,0.2,1.9,0.2c0.4,0,0.9-0.3,1.4-0.4H32.8z"/>
		<path d="M1.7,21.5c0.5-0.3,1.2-0.1,1.7-0.3c0.5-0.2,0.9-1,1.4-1.1c0.5-0.1,1.1-0.1,1.6-0.1c0.1-0.5,0.6-1.3,0.4-1.7
			c-0.2-0.5-2.4-0.5-2.5-1.1c-0.1-0.6,0.2-1.4,0.2-1.9c0-0.6,1.4-1,1.5-1.6c0.1-0.6-1.1-1.5-0.8-2.1c0.2-0.5,2.1-0.2,2.4-0.7
			c0.3-0.5-0.7-2-0.3-2.4c0.4-0.4,1.5-0.1,2-0.4c0.5-0.3,1-0.6,1.5-0.8c0.5-0.2,1.1-0.2,1.6-0.4c0.6-0.1,1.1-0.3,1.6-0.3
			c0.6,0,1.3-1.1,1.9-1c0.5,0.1,0.6,1.7,1.1,2.1c0-0.1,0-0.3,0-0.4c-0.1-0.6-0.4-1-0.4-1.6c0-0.6-0.8-1.2-0.7-1.8s0.6-1.1,0.8-1.6
			s1-0.8,1.3-1.2c0.3-0.5,0.9-0.6,1.3-1c0.1-0.1,0.1-0.1,0.2-0.2H0v21.8C0.5,21.7,1.3,21.8,1.7,21.5"/>
		<path d="M38.3,59c-0.5-0.3-1.3-0.3-1.7-0.7c-0.4-0.4-1.2-0.7-1.5-1.2c0,0-0.1-0.1-0.1-0.1c-0.3,0.4-1.2,0.6-1.5,1
			c-0.3,0.5-0.2,1.3-0.6,1.7c-0.2,0.2-0.4,0.3-0.6,0.4h7.4C39.2,59.8,38.8,59.3,38.3,59"/>
	</g>
</g>
</svg>
